<?xml version="1.0" encoding="UTF-8" standalone="no"?>
<!-- Created with Inkscape (http://www.inkscape.org/) -->

<svg
   width="265.62149mm"
   height="17.183437mm"
   viewBox="0 0 265.62149 17.183437"
   version="1.1"
   id="svg1"
   xmlns="http://www.w3.org/2000/svg"
   xmlns:svg="http://www.w3.org/2000/svg">
  <defs
     id="defs1" />
  <g
     id="layer1"
     transform="translate(27.78125,-139.96458)">
    <path
       id="rect3002-3-6"
       style="display:inline;fill:#ff7b00;stroke:#f2eedf;stroke-width:1.03138"
       d="m -27.26556,152.10059 h 264.59009 v 4.53174 H -27.26556 Z" />
    <path
       id="rect3002-3-6-6"
       style="display:inline;fill:#935720;stroke:#f2eedf;stroke-width:1.03125"
       d="M -27.265526,140.48021 H 237.32462 v 11.61661 H -27.265526 Z" />
    <path
       style="display:inline;fill:#f2eedf;fill-opacity:1;stroke:none;stroke-width:0.0875861"
       d="m -9.2729384,147.60966 c 0.00172,0.25899 -0.3003928,0.66134 -0.6681859,0.66202 -0.3924267,-0.002 -0.7769837,-0.35718 -0.7769837,-1.06848 0,-0.7219 0.383531,-1.09311 0.7646671,-1.09482 0.3801097,0.002 0.682213,0.40885 0.6805025,0.71813 z m 0.020185,-1.9919 v -1.58784 h 0.7793794 v 4.93972 h -0.8057237 v -0.22752 c -0.065689,0.0664 -0.3435017,0.3565 -0.8173563,0.3565 -0.493698,7.9e-4 -1.377428,-0.4109 -1.377428,-1.89542 0,-1.25871 0.660317,-1.90944 1.445171,-1.90944 0.2904704,0 0.5761516,0.10332 0.7759576,0.324 z m -2.5865266,5.0687 h 3.7224085 v -8.75861 h -3.7224075 z m 3.7224085,0 z m 0.6131025,0 h 3.7224096 v -8.75861 h -3.7224085 z m 3.7224096,0 z m -1.4670669,-1.71682 h -0.788275 v -3.53834 h 0.788275 z m -0.788276,0 z m 0.788276,-4.02007 h -0.788276 v -0.87586 h 0.788276 z m -0.788276,0 z m 5.35849001,1.81468 c 0,-0.31443 -0.35376641,-0.63911 -0.68152961,-0.63911 -0.2819162,0 -0.7181374,0.17928 -0.7181374,0.98432 0,0.85739 0.5361226,0.9826 0.7140311,0.9826 0.3527398,0 0.68563591,-0.24257 0.68563591,-0.61755 z m -2.49004401,-4.8364 h 3.72240702 v 8.75861 H -3.1682562 Z m 2.49791272,3.84592 c -0.0814282,-0.11667 -0.34863352,-0.38114 -0.73045372,-0.38114 -0.5929154,0.001 -1.419852,0.34351 -1.419852,1.82973 0.00106,1.17181 0.9374452,1.56526 1.3216598,1.56526 0.4153482,8e-4 0.72361163,-0.24086 0.80777559,-0.33187 v 0.36848 c 0,0.27268 -0.27952171,0.53886 -0.74721769,0.53886 -0.4030319,-0.001 -0.4447725,-0.25934 -0.4447725,-0.3873 h -0.8235157 c 0,0.4092 0.2637843,1.00656 1.2183375,1.00724 0.85499043,0 1.13690661,-0.32673 1.25870755,-0.44922 0.10229585,-0.10332 0.25557162,-0.38695 0.25557162,-0.61413 V 145.4313 H -0.6693169 Z m 1.83759738,4.91269 h 3.722407 v -8.75861 h -3.722407 z m 3.722407,0 z M 3.4225966,148.96964 H 2.6343208 v -3.53834 h 0.7882758 z m -0.7882758,0 z m 0.7882758,-4.02007 H 2.6343208 v -0.87586 h 0.7882758 z m -0.7882758,0 z m 4.9075578,-0.85396 H 6.8210028 v 1.27342 H 6.4432889 v 0.5912 h 0.3777139 v 2.22832 c 0,0.42458 0.2179399,0.75851 0.8259101,0.75748 0.2846546,0 0.2733648,0.002 0.5203851,-0.0411 v -0.73558 c -0.1614884,0.0277 -0.2110978,0.0393 -0.2901288,0.0366 -0.1515666,-0.004 -0.3352906,-0.0578 -0.3352906,-0.32742 v -1.91731 H 8.112897 v -0.59223 H 7.5418786 Z m 1.683295,6.59085 H 5.502764 v -8.75861 h 3.7224096 z m 4.3355104,0 h -3.72241 v -8.75861 h 3.72241 z m -3.72241,0 z m 0.612077,-4.14118 h 0.675372 c 0,-0.3589 0.185777,-0.54741 0.539544,-0.54741 0.564176,-7.9e-4 0.5457,0.25044 0.544674,0.5652 -0.34829,0.13549 -0.31613,0.13207 -0.847805,0.25284 -0.675028,0.15601 -1.088667,0.44511 -1.089353,1.14478 7.94e-4,0.68426 0.487884,1.04932 1.037006,1.04863 0.549809,8e-4 0.663739,-0.17722 0.8916,-0.32844 v 0.27302 h 0.861833 c -0.203226,-0.32742 -0.149855,-0.3914 -0.151567,-0.63739 0.0011,-0.19297 0,-2.07949 0,-2.07949 0.0011,-0.37395 -0.193645,-0.6025 -0.320577,-0.67879 -0.317158,-0.1892 -0.708556,-0.21178 -0.925811,-0.21281 -0.771512,0.002 -1.215599,0.38969 -1.214916,1.19986 z m 1.75959,0.68495 v 0.47728 c 0,0.21828 -0.265152,0.64047 -0.78622,0.64116 -0.254207,0.001 -0.396193,-0.18715 -0.396875,-0.43178 7.94e-4,-0.24531 0.208359,-0.43348 0.384558,-0.46838 0.183039,-0.0369 0.604206,-0.14472 0.798537,-0.21828 z m 1.963846,3.45623 h 3.722407 v -8.75861 h -3.722407 z m 3.722407,0 z m -1.467067,-1.71682 h -0.788273 v -4.98351 h 0.788273 z m 0,0"
       id="path1220" />
    <path
       d="m -11.69553,155.31841 h 1.302327 c 0.5214892,0 0.6665021,-0.0279 0.8003602,-0.15338 0.1366468,-0.12828 0.1979984,-0.36532 0.1979984,-0.77805 0,-0.43783 -0.039042,-0.6191 -0.1617451,-0.75017 -0.1422243,-0.1478 -0.2816598,-0.17847 -0.8561345,-0.17847 h -1.282806 z m 0.248195,-0.21752 v -1.42504 h 1.029034 c 0.228674,0 0.298392,0 0.356955,0.006 0.1589564,0.0139 0.2426177,0.0474 0.3011806,0.11713 0.072506,0.092 0.1115484,0.29281 0.1115484,0.57726 0,0.44898 -0.080873,0.65256 -0.2816597,0.69997 -0.1031823,0.0251 -0.1171263,0.0251 -0.4740803,0.0251 z m 2.4775259,-1.64255 v 1.86007 h 0.2481952 v -1.86007 z m 1.7329399,0.91748 v 0.21752 h 0.9704711 c -0.00558,0.27051 -0.019521,0.35138 -0.069718,0.40715 -0.069718,0.0753 -0.2314629,0.1004 -0.663713,0.1004 -0.8645001,0 -0.9565276,-0.0167 -1.0067243,-0.198 -0.019521,-0.0753 -0.033465,-0.30118 -0.033465,-0.54659 0,-0.37369 0.02231,-0.52149 0.092027,-0.58563 0.075295,-0.0725 0.2677161,-0.0948 0.7892049,-0.0948 0.1533791,0 0.3932082,0.006 0.4963904,0.0139 0.1952097,0.0139 0.2677162,0.0307 0.3151243,0.0781 0.041831,0.0418 0.058563,0.11155 0.061352,0.2733 h 0.2537726 c -0.00279,-0.16175 -0.013944,-0.23147 -0.052986,-0.31513 -0.055774,-0.12549 -0.1952097,-0.21752 -0.3597436,-0.23983 -0.1143371,-0.0167 -0.5019678,-0.0335 -0.7585291,-0.0335 -0.298392,0 -0.5187001,0.0111 -0.6720792,0.0362 -0.2007871,0.0307 -0.3179129,0.12549 -0.3625323,0.29839 -0.036253,0.13665 -0.055774,0.35975 -0.055774,0.60236 0,0.25378 0.019521,0.46851 0.052986,0.60237 0.039042,0.16174 0.1645339,0.26492 0.3430114,0.2956 0.1450129,0.0223 0.4629258,0.0362 0.8003598,0.0362 0.3876307,0 0.6609243,-0.0195 0.7724727,-0.0558 0.1701113,-0.0558 0.239829,-0.13944 0.278871,-0.32907 0.02231,-0.10876 0.025098,-0.20636 0.027887,-0.56332 z m 1.6353365,-0.91748 v 1.86007 h 0.2481952 v -1.86007 z m 0.5728362,0 v 0.21751 h 0.9342179 v 1.64256 h 0.2481952 v -1.64256 h 0.9286404 v -0.21751 z m 4.14796349,1.86007 h 0.2760823 l -1.05134369,-1.86007 h -0.3959969 l -1.0541324,1.86007 h 0.2816597 l 0.2203081,-0.39321 h 1.5031148 z m -0.33743389,-0.61073 h -1.2660744 l 0.5856291,-1.03183 h 0.1003936 z m 0.91027479,-1.24934 v 1.86007 H 1.4071646 v -0.21752 h -1.46686151 v -1.64255 z m 2.92208861,1.86007 h 1.8238164 v -0.21752 H 2.8623917 v -0.63862 h 1.5059035 v -0.21752 H 2.8623917 v -0.5689 h 1.5728325 v -0.21751 H 2.6141965 Z m 4.6332028,-0.24541 -0.192421,-0.1227 c 0.030676,-0.11992 0.044619,-0.31513 0.044619,-0.56054 0,-0.26771 -0.013943,-0.45177 -0.044619,-0.58284 -0.036253,-0.1729 -0.1589565,-0.29002 -0.3234904,-0.31791 -0.1199145,-0.0195 -0.5047565,-0.0362 -0.9007534,-0.0362 -0.1979984,0 -0.3820533,0.006 -0.5103339,0.0167 -0.2203081,0.0167 -0.3095468,0.0446 -0.3932081,0.11991 -0.125492,0.11434 -0.1645339,0.2984 -0.1645339,0.76132 0,0.49918 0.039042,0.71112 0.1478016,0.82546 0.1254919,0.12549 0.2705049,0.1478 1.0206679,0.1478 0.7780501,0 0.8923872,-0.0195 1.0374002,-0.1729 l 0.1673226,0.10597 z m -1.1099067,-0.71112 -0.1171258,0.18126 0.7362195,0.4713 c -0.089239,0.0697 -0.2398291,0.0864 -0.8421905,0.0864 -0.6135162,0 -0.7250646,-0.0139 -0.8031485,-0.092 -0.06414,-0.0669 -0.094816,-0.26772 -0.094816,-0.64977 0,-0.35138 0.025098,-0.51591 0.092027,-0.58284 0.072507,-0.0781 0.2370404,-0.1004 0.7613179,-0.1004 0.3290678,0 0.6023614,0.008 0.7222759,0.0251 0.1505903,0.0195 0.2203081,0.0809 0.2426178,0.21473 0.013943,0.0976 0.025098,0.29561 0.025098,0.46014 0,0.13944 -0.011155,0.35974 -0.02231,0.43783 z m 1.3871394,-0.90354 v 0.91469 c 0.00279,0.396 0.00558,0.43225 0.019521,0.54659 0.02231,0.18963 0.1422242,0.32907 0.3151242,0.36532 0.1282807,0.0251 0.3820533,0.039 0.7641066,0.039 0.3011807,0 0.6218823,-0.0167 0.7445856,-0.039 0.2035758,-0.039 0.3179129,-0.1729 0.3374339,-0.39878 0.011155,-0.11434 0.011155,-0.12829 0.013943,-0.51313 v -0.91469 H 9.4711516 v 0.91469 c -0.00279,0.53543 -0.00558,0.56611 -0.058563,0.62746 -0.066929,0.0781 -0.2481952,0.1004 -0.8533453,0.1004 -0.4991791,0 -0.6804452,-0.0251 -0.7334307,-0.10319 -0.050197,-0.0725 -0.052986,-0.0948 -0.052986,-0.62467 v -0.91469 z m 2.642064,0 v 1.86007 h 0.248195 v -1.86007 z m 0.712271,1.86007 h 0.248195 v -0.69997 h 0.928641 c 0.287237,0 0.287237,0 0.3458,-0.003 0.228674,-0.006 0.309547,-0.0279 0.407151,-0.11434 0.100394,-0.0837 0.139436,-0.21752 0.139436,-0.4685 0,-0.25377 -0.04462,-0.39321 -0.15059,-0.47408 -0.114338,-0.0864 -0.114338,-0.0864 -0.741797,-0.10039 h -1.176836 z m 0.248195,-0.91749 v -0.72507 h 0.928641 c 0.465714,0.008 0.493601,0.0139 0.568897,0.0697 0.05298,0.0418 0.06972,0.10597 0.06972,0.29561 0,0.1729 -0.01952,0.2454 -0.07529,0.29281 -0.0753,0.0614 -0.114337,0.0669 -0.563319,0.0669 z m 2.181925,-0.94258 v 1.86007 h 0.248196 v -1.62861 h 0.108759 l 1.048555,1.62861 h 0.200788 l 1.0374,-1.62861 h 0.103182 v 1.62861 h 0.248195 v -1.86007 h -0.499179 l -0.989992,1.57841 -1.009513,-1.57841 z m 3.459155,1.86007 h 1.823816 v -0.21752 h -1.575621 v -0.63862 h 1.505903 v -0.21752 h -1.505903 v -0.5689 h 1.572832 v -0.21751 h -1.821027 z m 2.184715,-1.86007 v 1.86007 h 0.248195 v -1.62861 h 0.05577 l 1.620241,1.62861 h 0.421095 v -1.86007 h -0.248195 v 1.63139 h -0.05856 l -1.625818,-1.63139 z m 2.669948,0 v 0.21751 h 0.934218 v 1.64256 h 0.248195 v -1.64256 h 0.92864 v -0.21751 z m 5.211619,1.22424 c -0.0028,0.0362 -0.0028,0.0725 -0.0028,0.0837 0,0.23425 -0.04183,0.28724 -0.242618,0.31234 -0.07251,0.008 -0.404363,0.0223 -0.56332,0.0223 -0.225885,0 -0.479658,-0.008 -0.602361,-0.0223 -0.156168,-0.0139 -0.217519,-0.0725 -0.239829,-0.21473 -0.01115,-0.092 -0.02789,-0.39321 -0.02789,-0.5438 0,-0.32349 0.03346,-0.50197 0.103182,-0.56053 0.0753,-0.0586 0.30397,-0.0837 0.791994,-0.0837 0.331856,0 0.549376,0.0195 0.641403,0.0558 0.100394,0.0418 0.125492,0.10039 0.128281,0.27887 v 0.0641 h 0.231463 c -0.0028,-0.2231 -0.0056,-0.24819 -0.0251,-0.32628 -0.0251,-0.11712 -0.136646,-0.21473 -0.276082,-0.24819 -0.139435,-0.0307 -0.365321,-0.0474 -0.688811,-0.0474 -0.158957,0 -0.412729,0.008 -0.535433,0.0167 -0.262138,0.0167 -0.362532,0.0418 -0.448982,0.10876 -0.125492,0.10318 -0.1729,0.32628 -0.1729,0.8394 0,0.4462 0.03904,0.65535 0.145013,0.75853 0.125492,0.11992 0.320702,0.1478 1.051344,0.1478 0.571685,0 0.750163,-0.0279 0.858922,-0.13107 0.08645,-0.0837 0.100394,-0.15338 0.114337,-0.51033 z m 1.822178,-1.22982 c -0.178478,0 -0.499179,0.008 -0.616305,0.0167 -0.237041,0.0139 -0.329068,0.039 -0.421095,0.10876 -0.136647,0.10597 -0.181267,0.30397 -0.181267,0.80315 0,0.49918 0.02789,0.66371 0.139436,0.77805 0.08366,0.0892 0.175689,0.12549 0.362532,0.14222 0.10876,0.0112 0.521489,0.0223 0.80036,0.0223 0.340223,0 0.535432,-0.0139 0.683234,-0.0446 0.1729,-0.039 0.273294,-0.1478 0.306758,-0.33464 0.02231,-0.12828 0.03625,-0.33186 0.03625,-0.54938 0,-0.15059 -0.0084,-0.34301 -0.01952,-0.4434 -0.02231,-0.18685 -0.05577,-0.27609 -0.131069,-0.34859 -0.119914,-0.11992 -0.32349,-0.15059 -0.959316,-0.15059 z m -0.142224,0.22309 c 0.47408,0 0.619093,0.006 0.761317,0.0279 0.125492,0.0195 0.192421,0.0753 0.209154,0.18127 0.01673,0.0837 0.02789,0.30676 0.02789,0.51591 0,0.1729 -0.01394,0.37369 -0.03068,0.47408 -0.02231,0.11155 -0.08087,0.17011 -0.192421,0.18963 -0.122703,0.0223 -0.384842,0.0363 -0.652558,0.0363 -0.133858,0 -0.448983,-0.008 -0.552165,-0.0167 -0.19521,-0.0139 -0.264927,-0.0307 -0.315124,-0.0837 -0.05856,-0.0641 -0.07808,-0.23146 -0.07808,-0.63861 0,-0.35417 0.02789,-0.53265 0.0976,-0.594 0.07251,-0.0669 0.262139,-0.092 0.725065,-0.092 z m 1.677168,1.64256 h 0.248196 v -0.7167 h 0.911908 c 0.401574,0.003 0.401574,0.003 0.488024,0.0167 0.114337,0.0167 0.184055,0.0865 0.197998,0.20636 0.01116,0.0725 0.01116,0.0753 0.01116,0.31513 v 0.17848 h 0.248195 v -0.26493 c 0,-0.31792 -0.01115,-0.37369 -0.08366,-0.44898 -0.04741,-0.0502 -0.100393,-0.0781 -0.189632,-0.0948 0.245406,-0.0502 0.306758,-0.15059 0.306758,-0.49081 0,-0.15338 -0.01673,-0.24541 -0.05856,-0.33186 -0.05856,-0.11155 -0.170111,-0.18684 -0.320702,-0.20636 -0.12828,-0.0167 -0.131069,-0.0167 -0.599572,-0.0223 h -1.160104 z m 0.248196,-0.93422 v -0.70834 h 0.911908 c 0.446193,0 0.56053,0.0112 0.635826,0.0669 0.05577,0.0391 0.08924,0.14223 0.08924,0.2733 0,0.22031 -0.04462,0.30676 -0.181266,0.34301 -0.08366,0.0223 -0.145013,0.0251 -0.543798,0.0251 z m 2.307419,0.93422 h 0.248195 v -0.69997 h 0.92864 c 0.287238,0 0.287238,0 0.345801,-0.003 0.228674,-0.006 0.309546,-0.0279 0.407151,-0.11434 0.100394,-0.0837 0.139436,-0.21752 0.139436,-0.4685 0,-0.25377 -0.04462,-0.39321 -0.150591,-0.47408 -0.114337,-0.0864 -0.114337,-0.0864 -0.741797,-0.10039 h -1.176835 z m 0.248195,-0.91749 v -0.72507 h 0.92864 c 0.465715,0.008 0.493602,0.0139 0.568897,0.0697 0.05299,0.0418 0.06972,0.10597 0.06972,0.29561 0,0.1729 -0.01952,0.2454 -0.07529,0.29281 -0.0753,0.0614 -0.114337,0.0669 -0.56332,0.0669 z m 3.364336,-0.94816 c -0.178477,0 -0.499179,0.008 -0.616305,0.0167 -0.23704,0.0139 -0.329067,0.039 -0.421095,0.10876 -0.136647,0.10597 -0.181266,0.30397 -0.181266,0.80315 0,0.49918 0.02789,0.66371 0.139436,0.77805 0.08366,0.0892 0.175688,0.12549 0.362532,0.14222 0.10876,0.0112 0.521489,0.0223 0.80036,0.0223 0.340222,0 0.535432,-0.0139 0.683234,-0.0446 0.1729,-0.039 0.273293,-0.1478 0.306758,-0.33464 0.02231,-0.12828 0.03625,-0.33186 0.03625,-0.54938 0,-0.15059 -0.0084,-0.34301 -0.01952,-0.4434 -0.02231,-0.18685 -0.05577,-0.27609 -0.131069,-0.34859 -0.119915,-0.11992 -0.323491,-0.15059 -0.959317,-0.15059 z m -0.142224,0.22309 c 0.474081,0 0.619094,0.006 0.761318,0.0279 0.125492,0.0195 0.192421,0.0753 0.209153,0.18127 0.01673,0.0837 0.02789,0.30676 0.02789,0.51591 0,0.1729 -0.01394,0.37369 -0.03068,0.47408 -0.02231,0.11155 -0.08087,0.17011 -0.192421,0.18963 -0.122704,0.0223 -0.384842,0.0363 -0.652559,0.0363 -0.133858,0 -0.448982,-0.008 -0.552164,-0.0167 -0.19521,-0.0139 -0.264928,-0.0307 -0.315124,-0.0837 -0.05856,-0.0641 -0.07808,-0.23146 -0.07808,-0.63861 0,-0.35417 0.02789,-0.53265 0.0976,-0.594 0.07251,-0.0669 0.262138,-0.092 0.725064,-0.092 z m 1.677173,1.64256 h 0.248195 v -0.7167 h 0.911908 c 0.401574,0.003 0.401574,0.003 0.488024,0.0167 0.114338,0.0167 0.184055,0.0865 0.197999,0.20636 0.01115,0.0725 0.01115,0.0753 0.01115,0.31513 v 0.17848 h 0.248195 v -0.26493 c 0,-0.31792 -0.01116,-0.37369 -0.08366,-0.44898 -0.04741,-0.0502 -0.100394,-0.0781 -0.189633,-0.0948 0.245407,-0.0502 0.306758,-0.15059 0.306758,-0.49081 0,-0.15338 -0.01673,-0.24541 -0.05856,-0.33186 -0.05856,-0.11155 -0.170112,-0.18684 -0.320702,-0.20636 -0.128281,-0.0167 -0.131069,-0.0167 -0.599573,-0.0223 h -1.160103 z m 0.248195,-0.93422 v -0.70834 h 0.911908 c 0.446194,0 0.560531,0.0112 0.635826,0.0669 0.05577,0.0391 0.08924,0.14223 0.08924,0.2733 0,0.22031 -0.04462,0.30676 -0.181266,0.34301 -0.08366,0.0223 -0.145013,0.0251 -0.543799,0.0251 z m 4.365484,0.93422 h 0.276082 l -1.051344,-1.86007 h -0.395997 l -1.054132,1.86007 h 0.28166 l 0.220308,-0.39321 h 1.503114 z m -0.337434,-0.61073 h -1.266075 l 0.585629,-1.03183 h 0.100394 z m 0.427829,-1.24934 v 0.21751 h 0.934218 v 1.64256 h 0.248195 v -1.64256 h 0.928641 v -0.21751 z m 2.4357,0 v 1.86007 h 0.248195 v -1.86007 z m 1.894682,-0.006 c -0.178477,0 -0.499179,0.008 -0.616305,0.0167 -0.23704,0.0139 -0.329068,0.039 -0.421095,0.10876 -0.136647,0.10597 -0.181266,0.30397 -0.181266,0.80315 0,0.49918 0.02789,0.66371 0.139435,0.77805 0.08366,0.0892 0.175689,0.12549 0.362533,0.14222 0.108759,0.0112 0.521488,0.0223 0.800359,0.0223 0.340223,0 0.535433,-0.0139 0.683234,-0.0446 0.1729,-0.039 0.273294,-0.1478 0.306758,-0.33464 0.02231,-0.12828 0.03625,-0.33186 0.03625,-0.54938 0,-0.15059 -0.0084,-0.34301 -0.01952,-0.4434 -0.02231,-0.18685 -0.05577,-0.27609 -0.13107,-0.34859 -0.119914,-0.11992 -0.32349,-0.15059 -0.959316,-0.15059 z m -0.142224,0.22309 c 0.474081,0 0.619093,0.006 0.761318,0.0279 0.125492,0.0195 0.192421,0.0753 0.209153,0.18127 0.01673,0.0837 0.02789,0.30676 0.02789,0.51591 0,0.1729 -0.01394,0.37369 -0.03068,0.47408 -0.02231,0.11155 -0.08087,0.17011 -0.192421,0.18963 -0.122703,0.0223 -0.384842,0.0363 -0.652558,0.0363 -0.133858,0 -0.448982,-0.008 -0.552165,-0.0167 -0.195209,-0.0139 -0.264927,-0.0307 -0.315124,-0.0837 -0.05856,-0.0641 -0.07808,-0.23146 -0.07808,-0.63861 0,-0.35417 0.02789,-0.53265 0.09761,-0.594 0.07251,-0.0669 0.262139,-0.092 0.725065,-0.092 z m 1.677172,-0.21751 v 1.86007 h 0.248196 v -1.62861 h 0.05577 l 1.62024,1.62861 h 0.421096 v -1.86007 h -0.248196 v 1.63139 h -0.05856 l -1.625818,-1.63139 z m 2.837271,2.21702 1.695536,-2.53494 H 52.74039 l -1.698324,2.53494 z m 1.983927,-2.21702 v 1.86007 h 0.248195 v -1.62861 h 0.10876 l 1.048555,1.62861 h 0.200787 l 1.0374,-1.62861 h 0.103182 v 1.62861 h 0.248196 v -1.86007 h -0.49918 l -0.989992,1.57841 -1.009513,-1.57841 z m 5.51722,1.86007 h 0.276082 l -1.051343,-1.86007 h -0.395997 l -1.054132,1.86007 h 0.281659 l 0.220308,-0.39321 h 1.503115 z m -0.337434,-0.61073 h -1.266074 l 0.585629,-1.03183 h 0.100394 z m 0.341379,-1.24934 1.109906,1.09875 v 0.76132 h 0.248196 v -0.76132 l 1.090385,-1.09875 h -0.3458 l -0.867289,0.89238 -0.897964,-0.89238 z m 2.734092,0 v 1.86007 h 0.248195 v -1.62861 h 0.05577 l 1.620241,1.62861 h 0.421095 v -1.86007 H 63.63771 v 1.63139 h -0.05856 l -1.625818,-1.63139 z m 4.909279,1.86007 h 0.276082 l -1.051343,-1.86007 h -0.395997 l -1.054132,1.86007 h 0.281659 l 0.220308,-0.39321 h 1.503115 z m -0.337434,-0.61073 H 64.846371 L 65.432,153.67585 h 0.100394 z m 0.910271,0.61073 h 0.248195 v -0.7167 h 0.911909 c 0.401574,0.003 0.401574,0.003 0.488024,0.0167 0.114337,0.0167 0.184055,0.0865 0.197998,0.20636 0.01116,0.0725 0.01116,0.0753 0.01116,0.31513 v 0.17848 h 0.248195 v -0.26493 c 0,-0.31792 -0.01115,-0.37369 -0.08366,-0.44898 -0.04741,-0.0502 -0.100393,-0.0781 -0.189632,-0.0948 0.245406,-0.0502 0.306758,-0.15059 0.306758,-0.49081 0,-0.15338 -0.01673,-0.24541 -0.05856,-0.33186 -0.05856,-0.11155 -0.170111,-0.18684 -0.320702,-0.20636 -0.12828,-0.0167 -0.131069,-0.0167 -0.599572,-0.0223 h -1.160104 z m 0.248195,-0.93422 v -0.70834 h 0.911909 c 0.446193,0 0.56053,0.0112 0.635826,0.0669 0.05577,0.0391 0.08924,0.14223 0.08924,0.2733 0,0.22031 -0.04462,0.30676 -0.181266,0.34301 -0.08366,0.0223 -0.145013,0.0251 -0.543798,0.0251 z m 2.307424,0.93422 h 1.302327 c 0.521489,0 0.666502,-0.0279 0.80036,-0.15338 0.136647,-0.12828 0.197998,-0.36532 0.197998,-0.77805 0,-0.43783 -0.03904,-0.6191 -0.161745,-0.75017 -0.142224,-0.1478 -0.28166,-0.17847 -0.856134,-0.17847 h -1.282806 z m 0.248195,-0.21752 v -1.42504 h 1.029034 c 0.228674,0 0.298392,0 0.356955,0.006 0.158956,0.0139 0.242617,0.0474 0.30118,0.11713 0.07251,0.092 0.111549,0.29281 0.111549,0.57726 0,0.44898 -0.08087,0.65256 -0.28166,0.69997 -0.103182,0.0251 -0.117126,0.0251 -0.474081,0.0251 z m 2.547238,-0.0948 v 0.31234 h 0.114337 v 0.0307 c 0,0.10597 -0.02789,0.15338 -0.08924,0.15338 h -0.05856 v 0.16175 h 0.0502 c 0.100394,0 0.192421,-0.0307 0.234252,-0.0837 0.03625,-0.0474 0.0502,-0.11154 0.0502,-0.26213 v -0.31234 z m 1.695053,-1.54773 v 1.86007 h 0.248195 v -1.62861 h 0.10876 l 1.048555,1.62861 h 0.200787 l 1.0374,-1.62861 H 76.8157 v 1.62861 h 0.248195 v -1.86007 h -0.499179 l -0.989992,1.57841 -1.009513,-1.57841 z m 5.51722,1.86007 h 0.276082 l -1.051343,-1.86007 h -0.395997 l -1.054133,1.86007 h 0.28166 l 0.220308,-0.39321 h 1.503115 z m -0.337434,-0.61073 h -1.266074 l 0.585629,-1.03183 h 0.100393 z m 0.860082,0.0307 c -0.0028,0.0335 -0.0028,0.0781 -0.0028,0.0837 0,0.23705 0.04462,0.34023 0.181266,0.41552 0.117126,0.0669 0.28166,0.0865 0.688812,0.0865 0.571685,0 0.844979,-0.0279 0.981626,-0.10039 0.142224,-0.0781 0.206364,-0.21752 0.206364,-0.44619 0,-0.14223 -0.02789,-0.25099 -0.08645,-0.32628 -0.08645,-0.11992 -0.21473,-0.16454 -0.479658,-0.16454 -0.482447,-0.003 -0.482447,-0.003 -0.60515,-0.003 -0.256561,-0.003 -0.398786,-0.0139 -0.488024,-0.0446 -0.114337,-0.0362 -0.147802,-0.092 -0.147802,-0.25656 0,-0.092 0.01952,-0.16174 0.05856,-0.20078 0.08645,-0.0837 0.303969,-0.11713 0.780839,-0.11713 0.343011,0 0.513123,0.0279 0.602361,0.10039 0.04462,0.0335 0.05856,0.0809 0.05856,0.21752 v 0.0279 h 0.248195 c -0.0028,-0.23983 -0.03346,-0.33186 -0.139435,-0.41552 -0.128281,-0.10318 -0.334645,-0.14222 -0.752952,-0.14222 -0.186843,0 -0.446194,0.0139 -0.585629,0.0307 -0.200787,0.0251 -0.292815,0.0558 -0.384842,0.13107 -0.09203,0.0753 -0.139436,0.198 -0.139436,0.36532 0,0.37648 0.181267,0.5187 0.67208,0.5187 0.917485,0 0.917485,0 1.009513,0.0335 0.09203,0.0335 0.125492,0.10597 0.125492,0.26493 0,0.15895 -0.05856,0.25098 -0.178478,0.27608 -0.105971,0.0251 -0.354166,0.0418 -0.596784,0.0418 -0.393208,0 -0.60515,-0.0139 -0.677656,-0.0446 -0.08645,-0.039 -0.103183,-0.0809 -0.10876,-0.29281 v -0.0391 z m 2.413383,0 c -0.0028,0.0335 -0.0028,0.0781 -0.0028,0.0837 0,0.23705 0.04462,0.34023 0.181266,0.41552 0.117126,0.0669 0.28166,0.0865 0.688811,0.0865 0.571686,0 0.844979,-0.0279 0.981626,-0.10039 0.142224,-0.0781 0.206365,-0.21752 0.206365,-0.44619 0,-0.14223 -0.02789,-0.25099 -0.08645,-0.32628 -0.08645,-0.11992 -0.214731,-0.16454 -0.479658,-0.16454 -0.482447,-0.003 -0.482447,-0.003 -0.60515,-0.003 -0.256562,-0.003 -0.398786,-0.0139 -0.488025,-0.0446 -0.114337,-0.0362 -0.147801,-0.092 -0.147801,-0.25656 0,-0.092 0.01952,-0.16174 0.05856,-0.20078 0.08645,-0.0837 0.303969,-0.11713 0.780838,-0.11713 0.343012,0 0.513123,0.0279 0.602362,0.10039 0.04462,0.0335 0.05856,0.0809 0.05856,0.21752 v 0.0279 h 0.248195 c -0.0028,-0.23983 -0.03346,-0.33186 -0.139436,-0.41552 -0.12828,-0.10318 -0.334645,-0.14222 -0.752951,-0.14222 -0.186844,0 -0.446194,0.0139 -0.58563,0.0307 -0.200787,0.0251 -0.292814,0.0558 -0.384842,0.13107 -0.09203,0.0753 -0.139435,0.198 -0.139435,0.36532 0,0.37648 0.181266,0.5187 0.672079,0.5187 0.917486,0 0.917486,0 1.009513,0.0335 0.09203,0.0335 0.125492,0.10597 0.125492,0.26493 0,0.15895 -0.05856,0.25098 -0.178477,0.27608 -0.105971,0.0251 -0.354167,0.0418 -0.596784,0.0418 -0.393208,0 -0.60515,-0.0139 -0.677657,-0.0446 -0.08645,-0.039 -0.103182,-0.0809 -0.10876,-0.29281 v -0.0391 z m 4.502133,0.58006 h 0.276082 l -1.051344,-1.86007 h -0.395997 l -1.054132,1.86007 h 0.28166 l 0.220308,-0.39321 h 1.503115 z m -0.337434,-0.61073 h -1.266075 l 0.58563,-1.03183 h 0.100393 z m 2.767558,-0.0251 c -0.0028,0.0362 -0.0028,0.0725 -0.0028,0.0837 0,0.23425 -0.04183,0.28724 -0.242618,0.31234 -0.07251,0.008 -0.404363,0.0223 -0.563319,0.0223 -0.225886,0 -0.479658,-0.008 -0.602362,-0.0223 -0.156167,-0.0139 -0.217519,-0.0725 -0.239829,-0.21473 -0.01115,-0.092 -0.02789,-0.39321 -0.02789,-0.5438 0,-0.32349 0.03346,-0.50197 0.103183,-0.56053 0.07529,-0.0586 0.303969,-0.0837 0.791993,-0.0837 0.331857,0 0.549376,0.0195 0.641404,0.0558 0.100393,0.0418 0.125491,0.10039 0.12828,0.27887 v 0.0641 h 0.231463 c -0.0028,-0.2231 -0.0056,-0.24819 -0.0251,-0.32628 -0.0251,-0.11712 -0.136647,-0.21473 -0.276083,-0.24819 -0.139435,-0.0307 -0.365321,-0.0474 -0.688811,-0.0474 -0.158956,0 -0.412729,0.008 -0.535432,0.0167 -0.262139,0.0167 -0.362533,0.0418 -0.448983,0.10876 -0.125492,0.10318 -0.1729,0.32628 -0.1729,0.8394 0,0.4462 0.03904,0.65535 0.145013,0.75853 0.125492,0.11992 0.320702,0.1478 1.051344,0.1478 0.571686,0 0.750163,-0.0279 0.858923,-0.13107 0.08645,-0.0837 0.100393,-0.15338 0.114337,-0.51033 z m 0.628606,-1.22424 v 1.86007 h 0.248195 v -0.85614 h 1.712268 v 0.85614 h 0.248195 v -1.86007 h -0.248195 v 0.78641 H 90.33113 v -0.78641 z m 2.653216,0 v 0.91469 c 0.0028,0.396 0.0056,0.43225 0.01952,0.54659 0.02231,0.18963 0.142224,0.32907 0.315124,0.36532 0.128281,0.0251 0.382054,0.039 0.764107,0.039 0.301181,0 0.621882,-0.0167 0.744586,-0.039 0.203575,-0.039 0.317913,-0.1729 0.337434,-0.39878 0.01115,-0.11434 0.01115,-0.12829 0.01394,-0.51313 v -0.91469 h -0.248195 v 0.91469 c -0.0028,0.53543 -0.0056,0.56611 -0.05856,0.62746 -0.06693,0.0781 -0.248195,0.1004 -0.853345,0.1004 -0.499179,0 -0.680446,-0.0251 -0.733431,-0.10319 -0.0502,-0.0725 -0.05299,-0.0948 -0.05299,-0.62467 v -0.91469 z m 2.591868,1.28001 c -0.0028,0.0335 -0.0028,0.0781 -0.0028,0.0837 0,0.23705 0.04462,0.34023 0.181266,0.41552 0.117126,0.0669 0.28166,0.0865 0.688812,0.0865 0.571685,0 0.844979,-0.0279 0.981626,-0.10039 0.142224,-0.0781 0.206364,-0.21752 0.206364,-0.44619 0,-0.14223 -0.02789,-0.25099 -0.08645,-0.32628 -0.08645,-0.11992 -0.214731,-0.16454 -0.479658,-0.16454 -0.482447,-0.003 -0.482447,-0.003 -0.60515,-0.003 -0.256561,-0.003 -0.398786,-0.0139 -0.488024,-0.0446 -0.114338,-0.0362 -0.147802,-0.092 -0.147802,-0.25656 0,-0.092 0.01952,-0.16174 0.05856,-0.20078 0.08645,-0.0837 0.303969,-0.11713 0.780839,-0.11713 0.343011,0 0.513122,0.0279 0.602361,0.10039 0.04462,0.0335 0.05856,0.0809 0.05856,0.21752 v 0.0279 h 0.248195 c -0.0028,-0.23983 -0.03346,-0.33186 -0.139435,-0.41552 -0.128281,-0.10318 -0.334646,-0.14222 -0.752952,-0.14222 -0.186844,0 -0.446194,0.0139 -0.585629,0.0307 -0.200787,0.0251 -0.292815,0.0558 -0.384842,0.13107 -0.09203,0.0753 -0.139436,0.198 -0.139436,0.36532 0,0.37648 0.181266,0.5187 0.672079,0.5187 0.917486,0 0.917486,0 1.009514,0.0335 0.09203,0.0335 0.125491,0.10597 0.125491,0.26493 0,0.15895 -0.05856,0.25098 -0.178477,0.27608 -0.105971,0.0251 -0.354166,0.0418 -0.596784,0.0418 -0.393208,0 -0.60515,-0.0139 -0.677656,-0.0446 -0.08645,-0.039 -0.103183,-0.0809 -0.10876,-0.29281 v -0.0391 z m 2.463588,0.58006 h 1.823816 v -0.21752 h -1.575621 v -0.63862 h 1.505903 v -0.21752 h -1.505903 v -0.5689 h 1.572832 v -0.21751 h -1.821027 z m 2.045279,-1.86007 v 0.21751 h 0.934214 v 1.64256 h 0.2482 v -1.64256 h 0.92864 v -0.21751 z m 2.296254,0 v 0.21751 h 0.93422 v 1.64256 h 0.2482 v -1.64256 h 0.92864 v -0.21751 z m 2.40503,1.28001 c -0.003,0.0335 -0.003,0.0781 -0.003,0.0837 0,0.23705 0.0446,0.34023 0.18127,0.41552 0.11712,0.0669 0.28166,0.0865 0.68881,0.0865 0.57168,0 0.84498,-0.0279 0.98163,-0.10039 0.14222,-0.0781 0.20636,-0.21752 0.20636,-0.44619 0,-0.14223 -0.0279,-0.25099 -0.0864,-0.32628 -0.0864,-0.11992 -0.21473,-0.16454 -0.47966,-0.16454 -0.48245,-0.003 -0.48245,-0.003 -0.60515,-0.003 -0.25656,-0.003 -0.39878,-0.0139 -0.48802,-0.0446 -0.11434,-0.0362 -0.1478,-0.092 -0.1478,-0.25656 0,-0.092 0.0195,-0.16174 0.0586,-0.20078 0.0864,-0.0837 0.30397,-0.11713 0.78084,-0.11713 0.34301,0 0.51312,0.0279 0.60236,0.10039 0.0446,0.0335 0.0586,0.0809 0.0586,0.21752 v 0.0279 h 0.2482 c -0.003,-0.23983 -0.0335,-0.33186 -0.13944,-0.41552 -0.12828,-0.10318 -0.33464,-0.14222 -0.75295,-0.14222 -0.18684,0 -0.44619,0.0139 -0.58563,0.0307 -0.20079,0.0251 -0.29281,0.0558 -0.38484,0.13107 -0.092,0.0753 -0.13944,0.198 -0.13944,0.36532 0,0.37648 0.18127,0.5187 0.67208,0.5187 0.91749,0 0.91749,0 1.00952,0.0335 0.092,0.0335 0.12549,0.10597 0.12549,0.26493 0,0.15895 -0.0586,0.25098 -0.17848,0.27608 -0.10597,0.0251 -0.35417,0.0418 -0.59678,0.0418 -0.39321,0 -0.60515,-0.0139 -0.67766,-0.0446 -0.0864,-0.039 -0.10318,-0.0809 -0.10876,-0.29281 v -0.0391 z"
       id="text1688"
       style="font-size:2.78871px;line-height:1.25;font-family:'Microgramma D OT';-inkscape-font-specification:'Microgramma D OT';letter-spacing:0.185208px;word-spacing:0px;fill:#f2eedf;stroke-width:0.264583"
       aria-label="DIGITAL EQUIPMENT CORPORATION/MAYNARD, MASSACHUSETTS" />
    <path
       d="m 22.334869,143.05445 h 5.532435 q 0.953558,0 1.322387,0.55774 0.305858,0.47678 0.305858,1.45732 0,0.94456 -0.413808,1.39435 -0.413808,0.4408 -1.367366,0.4408 h -4.587873 v 2.50984 h -0.791633 z m 5.226577,3.24749 q 0.656696,0 0.917575,-0.35084 0.206904,-0.30586 0.206904,-0.99853 0,-0.75565 -0.269875,-0.99854 -0.269875,-0.25189 -1.016529,-0.25189 h -4.273019 v 2.5998 z m 3.153305,-3.21151 h 5.15461 q 1.133475,0 1.718203,0.44979 0.503767,0.38682 0.692679,1.22343 0.125942,0.58473 0.125942,1.77218 0,1.38536 -0.449792,2.05105 -0.539749,0.80962 -1.862136,0.80962 h -5.379506 z m 4.866743,5.65838 q 1.304396,0 1.718204,-0.63871 0.296862,-0.45879 0.296862,-1.87113 0,-1.32239 -0.251883,-1.79017 -0.386821,-0.71067 -1.57427,-0.71067 h -4.282015 v 5.01068 z m 4.223803,-5.69436 h 5.532436 q 0.953558,0 1.322387,0.55774 0.305858,0.47678 0.305858,1.45732 0,0.94456 -0.413808,1.39435 -0.413809,0.4408 -1.367366,0.4408 H 40.59693 v 2.50984 h -0.791633 z m 5.226577,3.24749 q 0.656696,0 0.917575,-0.35084 0.206904,-0.30586 0.206904,-0.99853 0,-0.75565 -0.269875,-0.99854 -0.269875,-0.25189 -1.016528,-0.25189 h -4.27302 v 2.5998 z"
       id="text1696"
       style="font-size:8.99583px;line-height:1.25;font-family:'Microgram DB';-inkscape-font-specification:'Microgram DB, Normal';letter-spacing:0.346604px;word-spacing:0px;fill:#f2eedf;stroke-width:0.264583"
       aria-label="PDP" />
    <path
       d="m 53.843585,144.67811 q 0,-0.83661 0.377825,-1.21443 0.377825,-0.37783 1.205441,-0.37783 l 0.926571,-0.036 0.81862,-0.036 0.557742,0.027 0.728662,-0.009 q 1.331383,0 1.808162,0.4228 0.413808,0.36883 0.413808,1.09749 0,0.6567 -0.08096,0.89959 -0.134937,0.36882 -0.60272,0.66569 l -0.10795,0.045 q 0.512762,0.14393 0.728662,0.53975 0.170921,0.32385 0.170921,0.90857 0,1.02553 -0.440796,1.43034 -0.440796,0.40481 -1.475316,0.40481 h -3.139545 q -0.944562,0 -1.421341,-0.35983 -0.548745,-0.41381 -0.548745,-1.34038 0,-0.67469 0.143933,-0.98954 0.188913,-0.4318 0.773641,-0.60272 -0.485774,-0.10795 -0.683683,-0.55774 -0.152929,-0.35084 -0.152929,-0.91758 z m 4.76779,4.1111 q 0.692679,0 1.007533,-0.18891 0.395816,-0.24289 0.395816,-0.90858 0,-0.72867 -0.296862,-0.97155 -0.287867,-0.24289 -1.052512,-0.24289 l -2.815695,-0.009 q -0.737658,0 -1.025524,0.25189 -0.287867,0.24288 -0.287867,0.98054 0,0.62072 0.350838,0.8636 0.314854,0.19791 0.944562,0.19791 z m -3.202515,-2.95063 h 3.301469 q 0.692679,0 0.953558,-0.2159 0.260879,-0.2159 0.260879,-0.93557 0,-0.12594 -0.009,-0.19791 -0.009,-0.072 -0.06297,-0.24289 -0.04498,-0.17991 -0.179916,-0.30585 -0.134938,-0.12595 -0.611717,-0.19791 -0.467783,-0.081 -1.214437,-0.081 l -1.03452,0.027 -1.043516,0.027 q -0.782637,0 -0.998537,0.26988 -0.170921,0.22489 -0.170921,1.0705 0,0.32385 0.233892,0.55774 0.251883,0.2249 0.575733,0.2249 z m 9.691677,-2.76172 h 0.629708 l -2.671761,6.32406 h -0.611717 z m 2.989794,-0.027 h 0.773641 v 6.32407 h -0.773641 z"
       id="text1166"
       style="font-size:8.99583px;line-height:1.25;font-family:'Microgram DB';-inkscape-font-specification:'Microgram DB';letter-spacing:1.73037px;word-spacing:0px;fill:#f2eedf;stroke-width:0.264583"
       aria-label="8/I" />
    <path
       d="m 48.675053,146.31983 v 0.77364 h 3.526365 v -0.77364 z"
       id="text4839"
       style="font-weight:500;font-stretch:expanded;font-size:8.99583px;line-height:1.25;font-family:'Microgramma D OT';-inkscape-font-specification:'Microgramma D OT, Medium Expanded';letter-spacing:0px;word-spacing:0px;fill:#f2eedf;stroke-width:0.264583"
       aria-label="-" />
  </g>
</svg>
