<?xml version="1.0" encoding="UTF-8" standalone="no"?>
<svg
   fill="#000000"
   version="1.1"
   id="Capa_1"
   width="182"
   height="182"
   viewBox="0 0 114.13038 114.13038"
   xml:space="preserve"
   xmlns="http://www.w3.org/2000/svg"
   xmlns:svg="http://www.w3.org/2000/svg"><defs
   id="defs1" />

<g
   id="g2"
   transform="matrix(2.50836,0,0,2.50836,2.3227414,4.3745798)">
		
		<path
   d="m 21.824,10.006 c -0.828,0 -1.5,0.672 -1.5,1.5 v 19 c 0,0.828 0.672,1.5 1.5,1.5 0.828,0 1.5,-0.672 1.5,-1.5 v -19 c 0,-0.828 -0.672,-1.5 -1.5,-1.5 z"
   id="path2"
   style="fill:#e0e0e0;fill-opacity:1" />
	</g><path
   d="m 57.065189,2.32274 c -30.185605,0 -54.742449,24.556844 -54.742449,54.742449 0,30.183096 24.556844,54.742451 54.742449,54.742451 30.185601,0 54.742451,-24.559355 54.742451,-54.742451 0,-30.185605 -24.55685,-54.742449 -54.742451,-54.742449 z m 0,101.95982 c -26.036777,0 -47.217369,-21.178086 -47.217369,-47.217371 0,-26.034269 21.180592,-47.214861 47.217369,-47.214861 26.036781,0 47.217371,21.180592 47.217371,47.214861 0,26.036776 -21.18059,47.217371 -47.217371,47.217371 z"
   id="path1"
   style="fill:#e0e0e0;fill-opacity:1;stroke-width:2.50836" /></svg>
